#!OML:ASF G:\JayActor3\Patient Classification 1\Patient 1\Session 6\male.ASF
:FULLY-SPECIFIED
:DEGREES
1197
root 6.05626 16.5603 -22.9247 543.58 -64.6722 -533.04
lowerback 8.81599 -0.503496 1.44063
upperback 6.91479 -0.980075 1.26401
thorax 2.23249 -0.630302 0.55674
lowerneck 17.6709 -8.0902 -2.15439
upperneck -26.393 -10.0532 9.77045
head -10.7486 -5.90229 5.34883
rclavicle -9.49197e-015 3.97569e-015
rhumerus 7.81991 3.74461 -32.7819
rradius 138.608
rwrist -6.51414
rhand -45.6863 -6.40911
rfingers 7.12502
rthumb -18.4439 -35.5547
lclavicle -9.49197e-015 3.97569e-015
lhumerus -18.4363 15.6592 62.8425
lradius 96.8997
lwrist -3.87634
lhand -45.3264 0.838604
lfingers 7.12502
lthumb -18.0977 30.0166
rfemur -29.1444 1.36162 25.586
rtibia 35.719
rfoot -20.1276 -13.0055
rtoes 11.4234
lfemur -23.2023 6.77148 -19.1349
ltibia 25.83
lfoot -12.0691 -3.76561
ltoes 4.22258
1198
root 6.05507 16.5625 -22.9239 543.661 -64.6745 -533.021
lowerback 8.83981 -0.503805 1.46256
upperback 6.8863 -0.976297 1.2778
thorax 2.18956 -0.627406 0.559104
lowerneck 17.6544 -8.09943 -2.14212
upperneck -26.5005 -10.0615 9.80137
head -10.7835 -5.91419 5.36675
rclavicle 3.52843e-014 -2.99171e-014
rhumerus 7.85909 3.57255 -32.6937
rradius 138.66
rwrist -6.629
rhand -45.6846 -6.35602
rfingers 7.12502
rthumb -18.4423 -35.5018
lclavicle 3.52843e-014 -2.99171e-014
lhumerus -18.4811 15.7302 62.7507
lradius 96.9494
lwrist -3.87337
lhand -45.3234 0.851263
lfingers 7.12502
lthumb -18.0948 30.0296
rfemur -29.2289 1.3673 25.5861
rtibia 35.6799
rfoot -20.1094 -12.9979
rtoes 11.4748
lfemur -23.2996 6.8385 -19.1545
ltibia 25.8003
lfoot -12.0307 -3.831
ltoes 4.24162
1199
root 6.05366 16.5645 -22.9232 543.743 -64.678 -533.009
lowerback 8.86142 -0.503354 1.48147
upperback 6.86013 -0.971889 1.28998
thorax 2.15028 -0.624309 0.561392
lowerneck 17.6369 -8.11196 -2.12906
upperneck -26.6068 -10.0737 9.83467
head -10.8174 -5.92828 5.38574
rclavicle 4.41799e-014 1.46107e-014
rhumerus 7.90261 3.40418 -32.6087
rradius 138.707
rwrist -6.73481
rhand -45.687 -6.30819
rfingers 7.12502
rthumb -18.4447 -35.4537
lclavicle 4.41799e-014 1.46107e-014
lhumerus -18.5129 15.796 62.6664
lradius 96.988
lwrist -3.87161
lhand -45.3066 0.841773
lfingers 7.12502
lthumb -18.0786 30.0216
rfemur -29.308 1.36525 25.5841
rtibia 35.6429
rfoot -20.0871 -12.989
rtoes 11.5048
lfemur -23.3912 6.90876 -19.1778
ltibia 25.7716
lfoot -11.9933 -3.90244
ltoes 4.25946
1200
root 6.05201 16.5664 -22.9227 543.824 -64.6804 -533.002
lowerback 8.88343 -0.502906 1.49642
upperback 6.8338 -0.967688 1.30181
thorax 2.11066 -0.621454 0.565551
lowerneck 17.6196 -8.12511 -2.11737
upperneck -26.7078 -10.0872 9.86708
head -10.8492 -5.94261 5.40439
rclavicle 2.45002e-014 -1.84373e-014
rhumerus 7.95409 3.24605 -32.5285
rradius 138.743
rwrist -6.82474
rhand -45.7081 -6.25368
rfingers 7.12502
rthumb -18.4649 -35.3973
lclavicle 2.45002e-014 -1.84373e-014
lhumerus -18.5503 15.8523 62.582
lradius 97.0286
lwrist -3.85921
lhand -45.2853 0.820404
lfingers 7.12502
lthumb -18.0582 30.0021
rfemur -29.3816 1.36051 25.581
rtibia 35.6084
rfoot -20.0652 -12.9791
rtoes 11.5181
lfemur -23.4747 6.98123 -19.2022
ltibia 25.7421
lfoot -11.9585 -3.97708
ltoes 4.28712
1201
root 6.05026 16.5682 -22.9223 543.903 -64.6833 -533
lowerback 8.914 -0.503423 1.50832
upperback 6.80163 -0.964227 1.31261
thorax 2.06027 -0.618968 0.570597
lowerneck 17.6086 -8.13997 -2.10225
upperneck -26.8029 -10.1034 9.8922
head -10.8807 -5.95734 5.42022
rclavicle 2.93704e-014 -4.49253e-014
rhumerus 8.0069 3.10292 -32.4543
rradius 138.771
rwrist -6.90627
rhand -45.7314 -6.19704
rfingers 7.12502
rthumb -18.4873 -35.3385
lclavicle 2.93704e-014 -4.49253e-014
lhumerus -18.6034 15.8961 62.4944
lradius 97.0713
lwrist -3.83566
lhand -45.2611 0.794433
lfingers 7.12502
lthumb -18.0349 29.9783
rfemur -29.4494 1.35082 25.5765
rtibia 35.5771
rfoot -20.043 -12.9683
rtoes 11.5201
lfemur -23.5502 7.0572 -19.2287
ltibia 25.7109
lfoot -11.9231 -4.05938
ltoes 4.3322
1202
root 6.04848 16.5699 -22.9221 543.981 -64.6852 -533
lowerback 8.94823 -0.50449 1.51745
upperback 6.76738 -0.961391 1.32279
thorax 2.00571 -0.616855 0.576658
lowerneck 17.596 -8.15464 -2.08551
upperneck -26.8925 -10.1195 9.91447
head -10.9101 -5.97166 5.43424
rclavicle 2.7482e-014 -1.78906e-015
rhumerus 8.06159 2.96841 -32.3844
rradius 138.808
rwrist -7.00253
rhand -45.7133 -6.17752
rfingers 7.12502
rthumb -18.4699 -35.3207
lclavicle 2.7482e-014 -1.78906e-015
lhumerus -18.6634 15.9332 62.4065
lradius 97.115
lwrist -3.80265
lhand -45.242 0.774109
lfingers 7.12502
lthumb -18.0165 29.9597
rfemur -29.5137 1.3425 25.5712
rtibia 35.5486
rfoot -20.0226 -12.957
rtoes 11.5162
lfemur -23.6192 7.13015 -19.255
ltibia 25.6773
lfoot -11.8889 -4.1393
ltoes 4.37848
1203
root 6.0467 16.5716 -22.9219 544.059 -64.6872 -533.005
lowerback 8.98489 -0.506402 1.52535
upperback 6.73175 -0.959532 1.33122
thorax 1.94835 -0.615213 0.581716
lowerneck 17.5826 -8.16924 -2.06358
upperneck -26.9749 -10.136 9.92809
head -10.9376 -5.98531 5.4438
rclavicle -5.2007e-014 1.81391e-014
rhumerus 8.12156 2.84058 -32.3208
rradius 138.853
rwrist -7.12058
rhand -45.6375 -6.19571
rfingers 7.12502
rthumb -18.397 -35.3458
lclavicle -5.2007e-014 1.81391e-014
lhumerus -18.7307 15.965 62.318
lradius 97.1614
lwrist -3.76441
lhand -45.2294 0.767176
lfingers 7.12502
lthumb -18.0044 29.9538
rfemur -29.5738 1.33579 25.5636
rtibia 35.5226
rfoot -20.0049 -12.9494
rtoes 11.5131
lfemur -23.6821 7.19844 -19.2818
ltibia 25.6422
lfoot -11.8569 -4.2161
ltoes 4.42994
1204
root 6.0448 16.5733 -22.9217 544.136 -64.6914 -533.014
lowerback 9.0178 -0.510655 1.53254
upperback 6.69656 -0.960865 1.33873
thorax 1.89353 -0.615145 0.586401
lowerneck 17.5691 -8.18034 -2.04118
upperneck -27.0521 -10.1485 9.93612
head -10.964 -5.99637 5.45044
rclavicle -1.9133e-014 4.37823e-014
rhumerus 8.1902 2.72 -32.2613
rradius 138.911
rwrist -7.25833
rhand -45.5024 -6.27376
rfingers 7.12502
rthumb -18.267 -35.436
lclavicle -1.9133e-014 4.37823e-014
lhumerus -18.7979 16.0007 62.232
lradius 97.2038
lwrist -3.72553
lhand -45.2243 0.765456
lfingers 7.12502
lthumb -17.9995 29.9526
rfemur -29.6304 1.32681 25.5543
rtibia 35.4977
rfoot -19.9908 -12.9387
rtoes 11.5247
lfemur -23.7406 7.26016 -19.3096
ltibia 25.6061
lfoot -11.8257 -4.28653
ltoes 4.46918
1205
root 6.04281 16.5749 -22.9215 544.208 -64.6967 -533.018
lowerback 9.0412 -0.516629 1.54324
upperback 6.66443 -0.964643 1.34579
thorax 1.84708 -0.61617 0.588645
lowerneck 17.5484 -8.18938 -2.0192
upperneck -27.1213 -10.1591 9.94098
head -10.9863 -6.00599 5.45463
rclavicle 2.18663e-014 1.20265e-014
rhumerus 8.27252 2.60189 -32.2056
rradius 138.972
rwrist -7.41414
rhand -45.3263 -6.38517
rfingers 7.12502
rthumb -18.0976 -35.5632
lclavicle 2.18663e-014 1.20265e-014
lhumerus -18.858 16.0453 62.1514
lradius 97.2419
lwrist -3.69137
lhand -45.2248 0.772782
lfingers 7.12502
lthumb -18 29.9598
rfemur -29.686 1.31887 25.5465
rtibia 35.473
rfoot -19.9803 -12.9279
rtoes 11.5395
lfemur -23.7988 7.31407 -19.3349
ltibia 25.5709
lfoot -11.7991 -4.34734
ltoes 4.49167
1206
root 6.04058 16.5766 -22.9213 544.277 -64.7029 -533.018
lowerback 9.05146 -0.524021 1.55672
upperback 6.63773 -0.97079 1.35225
thorax 1.81346 -0.618307 0.588637
lowerneck 17.521 -8.19532 -2.00106
upperneck -27.1854 -10.1663 9.94644
head -11.0053 -6.0138 5.45835
rclavicle 2.97183e-014 -1.99779e-014
rhumerus 8.37503 2.48423 -32.1576
rradius 139.024
rwrist -7.56839
rhand -45.1448 -6.49912
rfingers 7.12502
rthumb -17.923 -35.6933
lclavicle 2.97183e-014 -1.99779e-014
lhumerus -18.9098 16.0977 62.0754
lradius 97.2762
lwrist -3.66192
lhand -45.2307 0.778273
lfingers 7.12502
lthumb -18.0056 29.9648
rfemur -29.7392 1.3116 25.5395
rtibia 35.4476
rfoot -19.9734 -12.9158
rtoes 11.5635
lfemur -23.8563 7.36329 -19.3586
ltibia 25.5381
lfoot -11.7753 -4.40147
ltoes 4.50755
